<?xml version="1.0" encoding="UTF-8" standalone="no"?>
<!-- Created with Inkscape (http://www.inkscape.org/) -->

<svg
   version="1.1"
   width="716.01575"
   height="456.86267"
   viewBox="0 0 716.01575 456.86267"
   id="Layer_1"
   xml:space="preserve"
   xmlns="http://www.w3.org/2000/svg"
   xmlns:svg="http://www.w3.org/2000/svg"><defs
   id="defs14" />
<g
   id="g3"
   transform="translate(-26.322096,-70.502689)">
	<g
   id="XMLID_7_">
		<g
   id="g6">
			<path
   d="m 291.526,383.998 c -2.913,0.053 -3.683,3.2 -5.786,4.507 -3.004,4.61 -5.473,10.527 -8.177,14.72 -5.616,8.673 -9.195,18.117 -13.44,26.907 -6.623,13.819 -13.78,21.159 -26.215,30.852 -9.078,7.014 -18.221,12.447 -27.585,18.678 -9.992,6.635 -17.711,14.838 -28.631,20.663 -6.126,3.305 -10.867,8.085 -16.288,12.656 -6.922,5.812 -13.897,11.887 -23.354,12.226 -12.186,0.497 -24.19,-0.562 -36.376,0 -11.651,0.549 -42.659,6.636 -51.188,-4.453 -9,-11.756 27.991,-17.425 33.62,-19.083 23.158,-6.753 32.915,-32.667 45.297,-50.94 6.583,-9.704 12.187,-20.258 18.639,-30.015 4.977,-7.484 11.285,-13.062 14.942,-20.886 6.674,-14.276 5.643,-31.766 8.699,-46.982 1.293,-6.518 2.168,-13.871 4.493,-20.245 3.618,-9.861 9.561,-18.874 11.285,-29.441 0.601,-3.722 1.45,-9.509 -0.131,-13.087 -1.463,-3.305 -5.264,-4.219 -5.995,-8.346 -11.612,-0.588 -23.524,1.685 -35.188,0.562 -9.561,-0.954 -16.235,4.075 -26.959,4.598 -6.922,0.313 -15.373,2.717 -22.021,1.123 -4.715,-1.123 -7.34,-3.827 -12.199,-2.965 -6.4,1.124 -12.644,6.244 -18.992,8.02 -2.834,0.784 -6.518,0.562 -9.326,1.084 -0.013,0 -0.04,0 -0.065,0 -13.479,0.745 -6.008,-9.953 -11.625,-17.111 l 0.026,-0.666 c -3.226,-0.091 -5.499,-0.496 -8.568,-2.233 -3.109,-1.711 -7.994,-7.08 -10.083,-9.992 -3.475,-4.911 -5.434,-11.442 -2.782,-17.594 2.834,-6.583 9.274,-10.776 13.427,-16.34 3.893,-5.186 8.516,-11.847 10.606,-17.986 2.155,-6.322 -0.104,-12.944 1.28,-19.436 1.868,-8.738 8.412,-12.97 14.577,-18.469 6.896,-6.178 12.761,-13.624 16.784,-22.009 l 0.81,-0.758 c -2.991,-2.338 -4.624,-9.443 -4.715,-12.343 -0.118,-5.473 1.437,-10.88 4.402,-15.269 2.429,-3.67 8.738,-8.189 13.897,-6.283 4.153,1.555 4.571,9.248 7.955,11.612 6.857,4.833 31.021,1.071 37.63,-2.077 5.695,-2.756 7.628,-5.342 14.616,-6.244 8.947,-1.149 17.829,-4.545 26.62,-5.721 11.351,-1.515 22.57,-3.161 34.012,-3.448 8.412,-0.183 17.737,3.056 25.496,0.379 3.344,-1.124 5.643,-3.645 8.999,-4.768 5.499,-1.803 11.39,-2.233 17.137,-3.239 11.991,-2.129 23.589,-2.834 35.71,-2.782 17.346,0.065 35.318,-6.661 51.123,-13.702 11.521,-5.12 26.606,-8.006 38.571,-9.156 5.028,-0.483 10.214,0.326 15.269,0 6.845,-0.458 13.754,-2.573 20.494,-3.109 15.164,-1.241 29.166,-4.049 44.317,-4.728 9.052,-0.431 17.842,0 26.959,0.522 10.109,0.548 19.866,0.627 29.977,0.091 10.096,-0.509 19.317,-2.181 28.107,2.651 7.433,4.049 14.799,4.297 23.002,7.393 6.387,2.403 9.874,7.667 16.144,10.88 11.847,6.1 23.341,14.93 33.83,21.774 6.948,4.532 14.642,7.432 19.879,14.028 5.081,6.335 10.109,12.017 15.936,17.934 5.016,5.146 9.73,10.162 13.779,16.131 4.598,6.883 10.75,11.703 13.937,19.658 2.979,7.458 4.389,14.89 5.97,22.662 1.881,9.391 6.792,17.959 8.241,27.455 2.443,16.34 1.895,34.639 -1.188,50.888 -1.619,8.412 -6.086,15.426 -7.131,23.171 -2.782,20.141 -4.363,50.443 9.26,67.606 4.951,6.256 14.055,6.321 18.953,12.734 6.635,8.738 6.909,21.982 7.536,32.458 0.744,12.905 4.768,26.489 0.967,39.224 -3.239,10.75 -2.495,12.905 -16.118,12.278 -5.512,-0.235 -4.245,2.324 -9.601,4.166 -4.467,1.528 -13.688,2.104 -18.86,-1.41 l -1.985,-0.039 c 0.209,-6.988 6.309,-10.58 5.878,-18.26 -0.458,-9.209 -4.324,-15.491 -12.592,-17.464 -10.019,-2.377 -16.393,-7.301 -25.183,-12.408 -3.893,-2.286 -7.249,-3.213 -10.501,-6.021 -1.712,-1.502 -2.051,-3.069 -3.331,-3.932 l -0.013,-0.013 c -1.698,-0.327 -2.991,0.065 -3.893,0.901 -1.045,9.091 -6.779,16.771 -7.824,25.222 -1.593,12.722 4.271,26.228 0,39.197 l -1.724,0.013 c 0.535,0.04 1.071,-0.064 1.633,0.079 1.371,8.202 -7.72,20.637 -15.896,23.327 -8.046,2.6 -18.743,2.012 -27.22,3.423 -10.175,1.711 -20.833,3.748 -31.23,5.146 l 0.039,1.319 c -4.95,0.104 -9.325,-1.959 -14.498,-1.959 -6.335,0 -28.383,-3.161 -25.94,-12.082 1.985,-7.354 14.773,-5.237 20.312,-7.354 26.267,-9.979 18.116,-50.169 18.116,-72.635 0,-11.612 -0.836,-21.316 -1.934,-32.575 -0.47,-5.029 -5.708,-18.064 -12.422,-19.005 v -0.039 c -2.363,-0.862 -5.211,-0.928 -7.184,0 v 0.078 c -5.473,0.196 -10.867,0.705 -16.326,0.588 -6.335,-0.144 -11.194,-2.442 -16.798,-3.631 -5.028,-1.059 -10.554,0.13 -15.726,-0.301 -12.905,-1.032 -26.555,-0.783 -39.459,-2.717 -6.74,-1.032 -13.062,-1.567 -20.05,-1.188 -11.441,0.601 -21.512,4.95 -32.602,5.303 -1.019,5.29 4.702,11.142 6.701,15.713 3.213,7.275 1.397,14.733 3.475,22.074 1.802,6.348 2.795,10.253 2.795,17.633 0,20.39 2.09,40.647 1.149,61.259 -0.392,8.411 -2.143,14.981 -8.517,20.794 -8.411,7.667 -22.453,3.057 -33.502,4.297 -5.721,0.653 -9.835,4.05 -14.747,5.304 -8.189,2.05 -20.337,1.279 -27.964,-2.194 -5.408,-2.456 -25.431,-11.965 -13.245,-17.046 4.18,-1.711 9.783,-0.771 14.276,-2.481 3.292,-1.188 5.394,-2.717 8.712,-3.317 6.4,-1.084 12.578,2.56 15.073,-4.546 2.077,-5.825 -0.823,-12.943 -2.521,-17.084 -2.861,-7.066 -5.643,-12.043 -11.011,-17.176 -3.905,-3.749 -6.583,-8.229 -9.221,-12.813 l 0.026,-0.014 c -1.489,-2.468 -1.632,-6.321 -2.351,-9.939 l 0.575,-0.117 c -1.11,-5.669 -2.665,-10.384 -6.884,-16.105 -8.099,-10.959 -21.513,-14.016 -29.089,-26.19 z"
   id="path8" />
		</g>
		<g
   id="g10">
		</g>
	</g>
</g>
</svg>
